# xmcd CD database file
#
# Track frame offsets:
#	182
#	12345
#	24408
#	37539
#	50734
#	65514
#	80503
#	95625
#	108643
#	121129
#	135653
#	149554
#	162006
#	175224
#	187775
#	199090
#	212664
#	224399
#	234146
#	245412
#	256232
#	269072
#	280206
#
# Disc length: 3909 seconds
#
# Revision: 0
# Processed by: cddbd v1.5.1PL0 Copyright (c) Steve Scherf et al.
# Submitted via: CDex 1.51
#
DISCID=480f4317
DTITLE=Stan Getz - 1950 - Classics 1172
DYEAR=1950
DGENRE=Jazz
TTITLE0=Stardust
TTITLE1=Goodnight My Love
TTITLE2=There's A Small Hotel
TTITLE3=Too Marvelous For Words
TTITLE4=I've Got You Under My Skin
TTITLE5=What's New?
TTITLE6=Intoit
TTITLE7=You Stepped Out Of A Dream
TTITLE8=My Old Flame
TTITLE9=The Lady In Red
TTITLE10=Wrap Your Troubles In Dreams
TTITLE11=On The Alamo
TTITLE12=Gone With The Wind
TTITLE13=Yesterdays
TTITLE14=Sweetie Pie
TTITLE15=You Go To My Head
TTITLE16=Hershey Bar
TTITLE17=Tootsie Roll
TTITLE18=Strike Up The Band
TTITLE19=Imagination
TTITLE20=For Stompers Only (Navy Blue)
TTITLE21=Out Of Nowhere
TTITLE22='S Wonderful
EXTD=YEAR: 1950
EXTT0=
EXTT1=
EXTT2=
EXTT3=
EXTT4=
EXTT5=
EXTT6=
EXTT7=
EXTT8=
EXTT9=
EXTT10=
EXTT11=
EXTT12=
EXTT13=
EXTT14=
EXTT15=
EXTT16=
EXTT17=
EXTT18=
EXTT19=
EXTT20=
EXTT21=
EXTT22=
PLAYORDER=
